# xmcd
#
# Track frame offsets:
#	150
#	19700
#	34665
#	54220
#	65622
#	82870
#	101090
#	122415
#	139387
#	155417
#	174512
#	193617
#	206217
#
# Disc length: 3022 seconds
#
# Revision: 0
# Processed by: cddbd v1.4PL0 Copyright (c) Steve Scherf et al.
# Submitted via: EasyCDDAExtractor 4.5.0.2
#
DISCID=ab0bcc0d
DTITLE=Didier Sustrac - Blues Indigo
DYEAR=1995
DGENRE=Vocal
TTITLE0=Comme les animaux
TTITLE1=Rue du paradis
TTITLE2=Mauvais garçon
TTITLE3=Ma peau contre ta peau
TTITLE4=Ad libitum
TTITLE5=Dieu sait
TTITLE6=Andalousie
TTITLE7=Les marins, les bateaux
TTITLE8=C'est la vie !
TTITLE9=Dire
TTITLE10=Jules
TTITLE11=Je sais bien
TTITLE12=Heureux
EXTD=(P) 1995 V.K. Productions  (C) 1995 REMARK Records
EXTT0=
EXTT1=
EXTT2=
EXTT3=
EXTT4=
EXTT5=
EXTT6=
EXTT7=
EXTT8=
EXTT9=
EXTT10=
EXTT11=
EXTT12=
PLAYORDER=
